<?xml version="1.0" encoding="UTF-8"?>
<svg xmlns="http://www.w3.org/2000/svg" xmlns:xlink="http://www.w3.org/1999/xlink" viewBox="0 0 1024 1027.23">
  <defs>
    <style>
      .cls-1 {
        fill: none;
      }

      .cls-2 {
        fill: #6c757d;
      }

      .cls-2, .cls-3, .cls-4 {
        fill-rule: evenodd;
      }

      .cls-5, .cls-3 {
        fill: #dad7cd;
      }

      .cls-4 {
        fill: #a3b18a;
      }

      .cls-6 {
        fill: #588157;
      }

      .cls-6, .cls-7, .cls-8 {
        stroke: #000;
        stroke-miterlimit: 10;
        stroke-width: 10px;
      }

      .cls-7 {
        fill: #3a5a40;
      }

      .cls-9 {
        clip-path: url(#clippath-1);
      }

      .cls-10 {
        clip-path: url(#clippath-2);
      }

      .cls-8 {
        fill: #344e41;
      }

      .cls-11 {
        clip-path: url(#clippath);
      }
    </style>
    <clipPath id="clippath">
      <rect class="cls-1" width="1024" height="720.88"/>
    </clipPath>
    <clipPath id="clippath-1">
      <rect class="cls-1" width="1024" height="360.44"/>
    </clipPath>
    <clipPath id="clippath-2">
      <circle class="cls-1" cx="512" cy="512" r="500"/>
    </clipPath>
  </defs>
  <g id="circle">
    <circle class="cls-8" cx="512" cy="512" r="500"/>
    <g class="cls-11">
      <circle class="cls-7" cx="512" cy="512" r="500"/>
    </g>
    <g class="cls-9">
      <circle class="cls-6" cx="512" cy="512" r="500"/>
    </g>
  </g>
  <g id="hiker">
    <g class="cls-10">
      <g>
        <path class="cls-2" d="M224.6,1027.23l1.46-22.64s4.38-21.94,13.16-31.82c8.78-9.87,9.88-13.17,14.26-29.62,4.39-16.46,0-39.5-9.87-53.18-9.88-13.68,4.38-77.39,20.84-93.85,16.46-16.46,23.04-16.46,40.6-19.75,17.56-3.29,24.14,2.2,34.33,7.94,10.19,5.75,21.4,2.71,45.45,12.7,21.23,8.8,49.56-1.16,67.12,10.9,17.55,12.07,37.43,37.58,58.02,43.07,20.58,5.49,23.31,15.37,43.33,28.53,20.02,13.17,33.75,2.2,48.34-1.09,14.6-3.29,59.37-19.27,78.67-24.63,19.29-5.36,24.14,18.05,52.67,36.19,28.53,18.14,16.46,35.62,16.46,35.62,0,0,15.36,16.46,27.43,47.18,9.42,23.99,18.85,45.96,22.52,54.45H224.6Z"/>
        <path class="cls-4" d="M609.63,841.79c1.77-1.62,4.37-5.5,4.37-5.5l-.97-2.11,2.27-1.29,2.91-1.46s3.08-4.86,3.24-6.31c.16-1.46,1.29-3.88-2.58-3.07-3.88.8-8.91,2.42-10.52,1.13-1.62-1.29-2.92-1.94-3.24-6.96-.33-5.01-.97-7.76-1.29-9.38-.33-1.62-2.59-5.01-2.76-8.25-.16-3.24-4.35-33.89-7.13-41.97-2.77-8.09-5.81-10.11-7.58-17.44-1.77-7.33-2.78-6.83-4.05-13.14-1.26-6.32-3.28-11.89-4.8-14.92-1.52-3.03-2.02-4.3-4.05-8.85-2.02-4.56-4.55-8.1-7.08-14.16-2.52-6.06-2.27-6.57-3.79-10.36-1.52-3.8-1.77-4.05-1.77-4.05,0,0-15.79-35.94-17.3-46.56-1.52-10.61-2.02-16.68-3.03-22.5-1.01-5.81-4.55-18.2-4.55-18.2,0,0-5.44,3.96-8.55,7.06-3.11,3.11-8.54,8.16-14.5,11.01-5.95,2.84-10.09,4.4-10.09,4.4l17.12,39.68s.93.39,1.31.72c.39.34,4.25,7.6,4.03,8.18-.22.59-.51.98-.51.98l45.65,99.8,1.12,1.13s5.56,11.03,5.69,11.89c.13.86-.07,1.33-.07,1.33,0,0,30.72,70.78,32.5,69.16Z"/>
        <path class="cls-4" d="M462.49,522.09c.99-1.32,2.48-1.74,3.31-2.07.84-.34.17,2.57,1.16,3.48,1,.91,1.49.74,1.49,1.74s.16,3.14,1.16,3.73c.99.58,1.08-.17,1.33,1.49.25,1.65.33,2.98,1.33,3.48.99.49,3.06,1.24,3.06,1.24l-1.73,2.98-3.98,2.57-8.07-17.76s-.05.45.95-.88Z"/>
        <path class="cls-4" d="M508.22,490.51c-2.8,3.72-4.45,5.38-8.08,7.14-3.63,1.76-5.28,2.39-6.83,3.11-1.56.72-2.39,1.03-3.21,1.96-.83.93-1.76,1.24-1.45,2.49.31,1.24,3.51,5.18,4.66,5.69,1.14.52,8.32-6.42,10.9-7.23,2.59-.81,2.91-2.42,3.57-3.88.65-1.46,1.85-6.55,1.85-6.55,0,0,1.38-6.47-1.41-2.74Z"/>
        <path class="cls-4" d="M590.24,348.12c0,3.15-1.94,6.92,2.67,15.77,4.61,8.86,5.34,8.98,6.43,14.07,1.09,5.1,2.3,8.74,2.3,8.74,0,0-.97-14.57-2.55-19.29-1.58-4.74-2.42-6.55-3.63-10.56-1.21-4.01-5.22-11.9-5.22-8.73Z"/>
        <path class="cls-4" d="M566.82,286.87c-2.88-.62-4.58-1.25-6.45.31-1.86,1.55-4.26,2.33-5.05,2.95-.78.62-2.02,2.49-2.02,2.49,0,0,3.88,3.5,5.13,5.28s3.65,4.74,5.05,5.05c1.4.31,3.26,1.24,3.34-.85.08-2.1,0-5.9.31-6.76.31-.85-.39-2.56-.39-2.56,0,0-2.41-.78-1.87-2.1.54-1.32,4.81-3.18,1.95-3.8Z"/>
        <path class="cls-3" d="M436.88,279.44c-.29,3.16-1.96,5.12-2.7,6.67-.75,1.55-1.96,1.44-1.03,2.87.92,1.44,5.57,2.53,6.49,2.59.92.05,1.27.4,1.27.4,0,0,.4,2.59.46,3.57.06.98-.46,1.44.64,1.89,1.09.47,2.64.64,2.64.64,0,0-1.01,1.06-.21,2.33.81,1.27,1.33,1.27,1.72,1.67.4.4,1.04,1.15,1.09,2.58.06,1.44-.8,2.13.12,4.25.91,2.13,2.12,3.1,2.12,3.1l9.28.53s-4.16,6.4-5.25,7.84c-1.08,1.43-2.08,2.08-1.29,2.87.79.79,3.59,1.58,7.33,4.45,3.74,2.88,9.27,3.67,10.85,4.03,1.58.35,2.87,2.15,2.87,2.15,0,0,4.49,4.19,3.93,8.67-.56,4.49.56,3.18-.75,8.23-1.31,5.05-1.68,4.49-2.25,9.54-.56,5.05-1.49,6.18.94,12.53,2.43,6.37,4.12,9.73,4.12,11.79s-.79,2.48-.38,5.24c.42,2.76,2.48,12.66,4.98,26.38,2.5,13.72,4.24,14.72,5.99,20.21,1.75,5.49,2.5,8.98,2.5,8.98,0,0-.97,5.85-3.11,8.17-2.14,2.32-1.61,2.14-3.03,4.45-1.43,2.32-2.5,2.5-4.81,3.92-2.32,1.43-2.85,1.25-4.45,4.1-1.6,2.85-2.67,2.14-3.39,5.88-.71,3.74-.35,3.74-.71,6.94-.35,3.21-1.42,6.95-1.42,6.95,0,0-8.15,1.55-13.89.54-5.75-1-9.94-.09-9.94-.09,0,0-3.02-4.6-4.39-7.11-1.37-2.51-2.05-3.07-5.25-1.83-3.2,1.26-13.12,7.76-11.75,9.7,1.37,1.94,3.31,1.48,4.68,2.51,1.37,1.03,2.51,2.96,2.51,2.96,0,0-2.25,10.53-2.36,13.5-.11,2.96,1.03,4.56,3.08,4.68,2.06.11,2.74-.12,2.74-.12,0,0-1.71,4.11.46,5.37,2.17,1.25,3.88,1.03,3.88,1.03,0,0,.11,2.96,1.71,3.53,1.59.57,3.07.8,3.07.8,0,0,.23,2.74,2.85,3.31,2.63.57,5.7-.8,5.7-.8l11.4,23.07s-4.84,3.28-8.41,8.13c-3.57,4.84-5.28,7.12-5.28,7.12,0,0-28.73,16.31-34.38,27-5.64,10.69-8.61,22.58-8.61,22.58,0,0-12.11,47.99-19.39,77.45-7.29,29.47-9.97,51.44-10.18,54.48-.2,3.04.21,3.45,2.44,3.85,2.23.4,18.45,3.65,18.45,3.65,0,0-2.03,3.04-4.06,3.64-2.03.61-5.07-.81-8.31,1.02-3.25,1.83-5.07,2.84-7.1,4.26-2.02,1.42-3.45,1.63-6.69,2.03-3.24.4.4,0-4.06.6-4.45.61-5.27,1.42-15,1.42s-15.41-2.23-19.06.81c-3.65,3.04-5.27,1.83-4.46,7.91.81,6.09,1.83,8.31,11.15,13.58,9.32,5.27,21.28,9.13,30.21,9.94,8.92.81,19.26.4,23.11,2.02,3.86,1.63,7.1,2.64,9.94,3.45,2.83.82,4.66,1.22,8.72,2.23,4.06,1.02,12.97.21,12.97.21,0,0,5.27-.61,7.1-2.03,1.83-1.41,6.49-8.11,5.68-12.97-.81-4.87-2.43-7.3-2.64-9.73-.2-2.43-2.23-8.51-2.02-10.95.2-2.43-1.02-5.27-1.02-5.27l.21-3.65v-2.43s3.85-1.21,3.24-6.89c-.6-5.68-1.83-21.29-1.83-21.29,0,0,5.66-33.99,9.51-42.09,3.85-8.11,1.42-8.72,5.48-15,4.05-6.29,5.27-2.64,6.89-11.76,1.62-9.12,1.83-11.35,2.64-16.83.81-5.47-.21-3.65,1.62-8.52,1.83-4.86,3.45-13.99,3.45-13.99,0,0,15.04-1.86,17.96-3,2.92-1.13,4.38-1.78,4.38-1.78l4.3,41.18s-.4.74-.56,3.4c-.17,2.67.34,8.45.84,8.85.52.4,1.36.34,1.36.34l11.78,97.36s-.3.91-.48,1.82c-.18.9.43,8.9.58,9.38.15.49.63.78.63.78l1.02.59,8.49,64.41s-.76.47-.66,1.8c.09,1.32.76,2.45.76,2.45,0,0-1.2,1.16-2.89,2.02-1.71.85-3.21,1.04-2.45,1.8.75.75,6.62.56,6.62.56,0,0,2.36,15.41,3.12,16.92.75,1.52,2.55,2.08,2.74.85.19-1.23-1.23-18.33-1.23-18.33,0,0,3.88-1.33,5.38-2.37,1.52-1.03-5.46-1.34-5.46-1.34,0,0,.16-.98.3-2.27.15-1.28-1.43-2.95-1.43-2.95l-.68-1.06-6.99-63.65.71-1.65-1.65-10.75-1.18-.47-11.66-97.22s1.29.71.94-1.41-1.02-8.99-1.77-10.13c-.76-1.13-5.14-43.66-5.14-43.66l1.97-.86s18.71,38.89,18.47,39.84c-.23.95-.31,1.58.16,2.99.47,1.42,1.42,2.92,2.13,4.02.71,1.1,2.13,2.04,2.13,2.04,0,0,45.9,99.29,45.9,99.92s-.19,1.89.25,2.64c.45.76,4.07,10.18,4.86,10.34.78.15,1.26.08,1.26.08l35.35,73.02s-10.53,10.84-15.46,14.7c-4.94,3.86-6.86,3.64-11.8,7.72-4.94,4.07-7.08,4.72-7.08,9.23s2.58,7.94,7.73,10.09c5.14,2.14,24.67,0,30.47-1.93,5.79-1.93,9.23-3.44,9.23-3.44l2.89-.04s34.16-17.65,41.19-21.39c7.04-3.73,7.04-5.05,11.43-6.59,4.39-1.53,6.8-.88,6.37-5.71-.44-4.83-9.44-21.97-10.1-24.82-.65-2.86-2.41-6.81-4.39-6.15-1.97.65-3.51,0-3.51,0l-5.06-7.48.66-3.07s-.88-2.64-1.32-5.49c-.44-2.86-3.95-13.19-5.5-19.78-1.53-6.59-3.14-81.52-10-97.17-6.86-15.66-13.19-27.47-15.11-32.68-1.92-5.22-4.67-7.69-5.22-12.91-.54-5.22-.27-4.94-1.09-9.61-.83-4.67-1.65-6.04-2.47-10.16-.83-4.12-1.92-10.98-2.2-13.45-.28-2.47-1.1-4.12-1.1-4.12,0,0-4.19-40.16-5.06-47.37-.88-7.2-3.16-8.96-1.76-12.3,1.4-3.34,1.4-5.45,3.87-8.09,2.46-2.64,2.64-1.05,7.38-9.66,4.75-8.61,6.5-15.81,7.03-18.63.53-2.81.88-2.45,2.46-3.33,1.58-.89,1.76-3.34,1.76-3.34l-1.4-3.16s12.7,1.22,25.22-4.12c12.52-5.34,16.17-10.12,19.12-11.25,2.95-1.12,5.2-1.96,8.29-2.11,3.09-.14,7.03-1.12,7.03-1.12,0,0-3.09,1.4-3.94,9.7-.84,8.29.71,12.38.71,12.38l5.06-1.13s-2.68-5.34-1.41-10.69c1.27-5.34,2.39-9.56,3.66-11.25,1.27-1.69,9.7-5.2,9.7-5.2l1.27,1.69,2.95-.84-.28-2.81s-1.27-1.83-.28-2.82c.98-.98,4.07-5.48,5.06-8.57.98-3.1,4.1-21.28.34-30.28-3.75-9-7.49-11.75-7.99-17.24-.5-5.5-.25-6.75-.25-12s-.25-10.5-1.26-15c-1-4.5-4-12.5-4-12.5,0,0-3.1-30.94-8.5-39.14-5.4-8.2-7.4-9-8.2-13.2-.8-4.2,2.33-25.02-5.49-40.02-7.8-15-12.5-16.87-19.68-22.5-7.18-5.62-11.25-9.68-19.37-9.37-8.12.31-30.81-.56-34.56,2.44-3.75,3-8.5,9-11.75,15.5-3.25,6.5-5,9.5-6.75,12-1.75,2.5-4,3.25-4,3.25,0,0-7.73-1.83-10.13-1.03-2.4.8-3.07,2.54-4.26,2.67-1.21.13-2.67,0-4.54,0s-2.66-.4-5.87-.8c-3.2-.4-5.99-.13-7.86.8-1.87.93-3.87.8-3.87.8,0,0-6.97-6.3-10.13-7.07-3.15-.77-6.48-.16-13.14-.16s-9.72-1.37-9.72-1.37c0,0-.44-18.52-1.19-23.43-.74-4.9-6.61-10.66-10.03-13.65-3.41-2.98-25.26-6.09-30.81-5.35-5.55.75-10.77,2.03-13.44,5.55-2.66,3.52-8.53,6.4-10.13,10.03-1.6,3.63-3.84,6.08-3.84,6.08,0,0-10.51,6.66-13.24,8.52-2.73,1.85-4.38,4.26-3.39,7.48.99,3.22,12.91,6.25,12.63,9.41Z"/>
      </g>
    </g>
  </g>
  <g id="Text">
    <g>
      <path class="cls-5" d="M166.36,277.67c-25.48-22.36-25.13-56.19-4.45-79.75,12.86-14.66,31.05-22.64,50.45-18.59l-5.85,30.99-2.22,1.85c-6.86-.83-12.14,1.32-16.59,6.39-7.12,8.12-6.83,20.75,3.99,30.25,10.6,9.3,23.28,8.26,30.9-.42,4.06-4.62,5.5-10.14,3.79-16.83l1.54-2.44,29.97-9.82c6.53,18.71.87,37.89-11.99,52.54-20.88,23.79-54.41,27.88-79.55,5.82Z"/>
      <path class="cls-5" d="M282.29,232.67l-65.87-88.03,27.02-20.22,65.87,88.04-27.02,20.22Z"/>
      <path class="cls-5" d="M385.63,171.23l-29.26,14.61-4.49-8.99c-1.55,10.67-5.91,17.37-14.64,21.73-11.81,5.9-24.28,1.4-32.46-14.98l-19.5-39.05,30.2-15.08,16.02,32.07c2.95,5.9,5.1,6.51,7.24,5.44,3.22-1.61,4.03-6.04.34-13.42l-14.34-28.72,30.19-15.08,30.69,61.46Z"/>
      <path class="cls-5" d="M422.53,151.63l2.19,9.66-31.89,7.22-24.28-107.24,32.92-7.45,6.53,28.82c1.85,8.19,3.46,15.98,4.07,21.38,3.82-9.63,10.9-15.7,19.83-17.72,14.78-3.35,28.81,7.01,34.01,29.98,5.17,22.82-3.24,39.34-19.19,42.95-8.49,1.92-17.17-.42-24.18-7.6ZM434.43,124.02c-1.39-6.14-5.8-9.3-10.62-8.21-5.12,1.16-7.56,6.02-6.2,12.02,1.36,6,6.17,8.91,10.85,7.85s7.33-5.66,5.97-11.66Z"/>
      <path class="cls-5" d="M472.08,131.15l23.82-16.27,2.84.8c4.26,5.62,10.36,8.72,16.96,8.83,4.95.08,7.97-1.37,8.01-3.92.05-3.15-2.47-4.69-19.75-12.32-18.92-8.26-25.97-17.67-25.7-34.32.3-18.6,18.68-32.55,42.08-32.17,17.4.28,32.13,7.72,41.66,21.23l-23.83,17.32-2.84-.65c-3.67-5.16-9.16-8.55-15.01-8.64-4.2-.07-6.17,1.4-6.21,3.65-.04,2.4.85,3.31,19.77,11.57,18.62,8.1,26.11,17.97,25.9,31.17-.35,21.6-18.89,36.6-44.39,36.19-18-.29-33.77-8.35-43.29-22.45Z"/>
      <path class="cls-5" d="M623.01,140.69l-4.49,24.35c-3.98.68-12.25.58-18.85-.84-20.67-4.46-28.71-15.55-24.82-33.59l4.05-18.77-11-2.37,5.22-24.19,11.14,2.4,2.62-12.17,27.55-8.94,8.21,1.77-5.69,26.39,15.54,3.35-5.22,24.19-15.54-3.35-2.44,11.29c-1.27,5.86.85,8.16,6.71,9.43,1.91.41,3.47.29,5.68,0l1.31,1.05Z"/>
      <path class="cls-5" d="M700.96,181.74l-6.91,15.64c-4.11-.34-10.22-1.73-15.58-4.09-10.43-4.6-13.66-10.29-13.91-15.65-8.11,3.14-16.67,2.48-26-1.64-12.35-5.45-15.98-13.94-12.29-22.31,5.15-11.66,16.21-14.81,47.03-6.62l1.03-2.33c1.51-3.43.52-6-2.91-7.52-4.12-1.82-8.67-1.53-14.92,1.12l-1.43-.47-11.1-18.67c11.31-7.8,27.39-10.04,43.72-2.84,20.03,8.84,25.79,22.54,17.62,41.06l-8.12,18.39c-1.27,2.88-1.16,3.75.21,4.36.41.18,1.16.35,2.64.34l.93,1.23ZM658.12,166.6c1.78.79,3.87.89,6.52.09l4.12-9.33c-8.2-1.49-11.21.13-12.72,3.57-1.09,2.47-.25,4.65,2.09,5.68Z"/>
      <path class="cls-5" d="M715.23,170.79c12.51-17.05,34.89-20.92,54.12-6.81,12.46,9.14,19.4,21.49,17.73,37.2l-28.34-4.23-1.12-1.01c.57-5.35-.68-7.94-3.22-9.81-3.75-2.75-8.9-2.07-13.07,3.62-3.64,4.96-3.34,10.39.77,13.4,2.66,1.95,5.52,2.37,10.44.22l1.3.77,12.33,25.79c-14.52,6.09-28.62,3-41.32-6.32-19.47-14.29-22.04-35.89-9.61-52.83Z"/>
      <path class="cls-5" d="M792.91,284.61l6.61-22.47-5.71-.44-11.84,10.16-21.98-25.61,83.44-71.6,21.98,25.61-18.9,16.22c-12.29,10.55-22.88,18.25-29.13,22.03,4.18-.43,7.29-.72,10.05-.72l15.55-.3,25.69,29.94-38.41-2.61-12.84,48.38-24.52-28.57Z"/>
    </g>
  </g>
</svg>